<mxfile host="app.diagrams.net" modified="2024-01-29T06:19:04.906Z" agent="Mozilla/5.0 (Windows NT 10.0; Win64; x64) AppleWebKit/537.36 (KHTML, like Gecko) Chrome/120.0.0.0 Safari/537.36 Edg/120.0.0.0" version="23.0.1" etag="TwVn5VSnp8NNKYK3H5Lb" type="github">
  <diagram name="第 1 页" id="ulyxqPJVYh3NaeSwJ-IY">
    <mxGraphModel>
      <root>
        <mxCell id="0" />
        <mxCell id="1" parent="0" />
      </root>
    </mxGraphModel>
  </diagram>
</mxfile>
